<svg width="20" height="20" viewBox="0 0 20 20" fill="none" xmlns="http://www.w3.org/2000/svg">
  <path fill-rule="evenodd" clip-rule="evenodd" d="M15.8929 15.8916C13.3461 18.4386 9.57489 18.9889 6.48876 17.5617C6.03317 17.3783 5.65965 17.23 5.30456 17.23C4.31549 17.2359 3.08439 18.1949 2.44455 17.5558C1.80471 16.9159 2.76447 15.6838 2.76447 14.6888C2.76447 14.3337 2.62209 13.9668 2.43869 13.5103C1.01077 10.4247 1.56184 6.65224 4.10863 4.10601C7.35975 0.853695 12.6418 0.853695 15.8929 4.10517C19.1499 7.36251 19.144 12.6401 15.8929 15.8916Z" stroke="currentColor" stroke-width="2" stroke-linecap="round" stroke-linejoin="round"/>
  <path d="M13.283 10.3442H13.2905" stroke="currentColor" stroke-width="2" stroke-linecap="round" stroke-linejoin="round"/>
  <path d="M9.94197 10.3442H9.94947" stroke="currentColor" stroke-width="2" stroke-linecap="round" stroke-linejoin="round"/>
  <path d="M6.60115 10.3442H6.60865" stroke="currentColor" stroke-width="2" stroke-linecap="round" stroke-linejoin="round"/>
</svg>
