<svg width="24" height="24" viewBox="0 0 24 24" fill="none" xmlns="http://www.w3.org/2000/svg">
  <path d="M1.62225 16.8217C1.23925 15.8982 0.971833 14.9145 0.838047 13.8889L1.43301 13.8113C1.37151 13.3398 1.33975 12.8587 1.33975 12.3699V12.1849H0.739746V11.8151H1.33975V11.6301C1.33975 11.1413 1.37151 10.6602 1.43301 10.1887L0.838047 10.1111C0.971833 9.08549 1.23925 8.10185 1.62225 7.17826L2.17648 7.40809C2.5482 6.51169 3.03488 5.67468 3.61829 4.91549L3.14254 4.54989C3.76167 3.74421 4.48396 3.02192 5.28964 2.40279L5.65523 2.87854C6.41442 2.29513 7.25144 1.80846 8.14783 1.43674L7.918 0.8825C8.8416 0.499501 9.82523 0.232087 10.8509 0.0983012L10.9285 0.693261C11.4 0.63176 11.8811 0.6 12.3699 0.6C12.8587 0.6 13.3398 0.63176 13.8113 0.693261L13.8889 0.0983012C14.9145 0.232087 15.8982 0.499501 16.8217 0.8825L16.5919 1.43674C17.4883 1.80846 18.3253 2.29513 19.0845 2.87854L19.4501 2.40279C20.2558 3.02193 20.9781 3.74421 21.5972 4.54989L21.1215 4.91549C21.7049 5.67468 22.1915 6.51169 22.5633 7.40809L23.1175 7.17826C23.5005 8.10185 23.7679 9.08549 23.9017 10.1111L23.3067 10.1887C23.3682 10.6602 23.4 11.1413 23.4 11.6301V11.8151H24V12.1849H23.4V12.3699C23.4 12.8587 23.3682 13.3398 23.3067 13.8113L23.9017 13.8889C23.7679 14.9145 23.5005 15.8981 23.1175 16.8217L22.5633 16.5919C22.1915 17.4883 21.7049 18.3253 21.1215 19.0845L21.5972 19.4501C20.9781 20.2558 20.2558 20.9781 19.4501 21.5972L19.0845 21.1215C18.3253 21.7049 17.4883 22.1915 16.5919 22.5633L16.8217 23.1175C15.8982 23.5005 14.9145 23.7679 13.8889 23.9017L13.8113 23.3067C13.3398 23.3682 12.8587 23.4 12.3699 23.4C11.8811 23.4 11.4 23.3682 10.9285 23.3067L10.8509 23.9017C9.82523 23.7679 8.8416 23.5005 7.918 23.1175L8.14783 22.5633C7.25144 22.1915 6.41442 21.7049 5.65523 21.1215L5.28964 21.5972C4.48395 20.9781 3.76167 20.2558 3.14254 19.4501L3.61829 19.0845C3.03488 18.3253 2.5482 17.4883 2.17648 16.5919L1.62225 16.8217Z" fill="white" stroke="#D0D0D0" stroke-width="1.2" stroke-dasharray="3 3"/>
  <path d="M15.8141 12.4754H12.9861V15.3734H11.5021V12.4754H8.67409V11.1314H11.5021V8.23342H12.9861V11.1314H15.8141V12.4754Z" fill="#C9C9C9"/>
</svg>
