<svg x="0" y="0" viewBox="0 0 24 24" style="enable-background:new 0 0 512 512" xml:space="preserve" class=""><g><g fill="#000"><path d="M12 3.25a.75.75 0 0 1 0 1.5 7.25 7.25 0 0 0 0 14.5.75.75 0 0 1 0 1.5 8.75 8.75 0 1 1 0-17.5z" fill="currentColor" data-original="currentColor" class=""></path><path d="M16.47 9.53a.75.75 0 0 1 1.06-1.06l3 3a.75.75 0 0 1 0 1.06l-3 3a.75.75 0 1 1-1.06-1.06l1.72-1.72H10a.75.75 0 0 1 0-1.5h8.19z" fill="currentColor" data-original="currentColor" class=""></path></g></g></svg>
