<svg width="12" height="13" viewBox="0 0 12 13" fill="currentColor" xmlns="http://www.w3.org/2000/svg">
  <path d="M1.43548 6.88399L6.03048 2.28799C6.45244 1.86603 7.02474 1.62898 7.62148 1.62898C8.21822 1.62898 8.79052 1.86603 9.21248 2.28799C9.63444 2.70995 9.87149 3.28225 9.87149 3.87899C9.87149 4.47573 9.63444 5.04803 9.21248 5.46999L3.91048 10.773C3.84133 10.8447 3.7586 10.9018 3.66711 10.9412C3.57563 10.9805 3.47722 11.0013 3.37764 11.0022C3.27806 11.0031 3.17929 10.9842 3.0871 10.9465C2.99491 10.9088 2.91114 10.8532 2.84069 10.7828C2.77024 10.7124 2.71451 10.6287 2.67676 10.5365C2.639 10.4444 2.61998 10.3456 2.6208 10.246C2.62162 10.1465 2.64226 10.048 2.68152 9.95652C2.72078 9.865 2.77788 9.78221 2.84948 9.71299L8.15248 4.40899C8.28496 4.26682 8.35708 4.07877 8.35366 3.88447C8.35023 3.69017 8.27152 3.50478 8.1341 3.36737C7.99669 3.22996 7.8113 3.15124 7.617 3.14782C7.4227 3.14439 7.23466 3.21651 7.09248 3.34899L1.78848 8.65199C1.36652 9.07395 1.12947 9.64625 1.12947 10.243C1.12947 10.8397 1.36652 11.412 1.78848 11.834C2.21044 12.256 2.78274 12.493 3.37948 12.493C3.97622 12.493 4.54852 12.256 4.97048 11.834L10.2745 6.53099C10.9778 5.82764 11.373 4.87368 11.373 3.87899C11.373 2.8843 10.9778 1.93034 10.2745 1.22699C9.57113 0.523636 8.61717 0.128496 7.62248 0.128496C6.62779 0.128496 5.67383 0.523636 4.97048 1.22699L0.374481 5.82299C0.302816 5.89214 0.245641 5.97487 0.206292 6.06636C0.166943 6.15784 0.146207 6.25625 0.145295 6.35583C0.144383 6.45541 0.163313 6.55418 0.20098 6.64637C0.238648 6.73856 0.294298 6.82233 0.364684 6.89278C0.43507 6.96323 0.518782 7.01896 0.610936 7.05672C0.70309 7.09447 0.80184 7.11349 0.901425 7.11267C1.00101 7.11186 1.09943 7.09121 1.19096 7.05195C1.28248 7.01269 1.36526 6.95559 1.43448 6.88399H1.43548Z" fill="currentColor"/>
</svg>
