<svg width="20" height="21" viewBox="0 0 20 21" fill="none" xmlns="http://www.w3.org/2000/svg">
  <path d="M17.4077 11.6364C17.1877 11.6364 16.9577 11.5664 16.7377 11.5164C16.2926 11.4168 15.8548 11.2865 15.4277 11.1264C14.9638 10.9576 14.4539 10.9663 13.996 11.151C13.5382 11.3356 13.1648 11.683 12.9477 12.1264L12.7277 12.5864C11.7566 12.0356 10.8594 11.3635 10.0577 10.5864C9.28058 9.78473 8.60853 8.88753 8.05773 7.91635L8.51773 7.70635C8.9611 7.48927 9.30851 7.11588 9.49312 6.65804C9.67774 6.2002 9.6865 5.69027 9.51773 5.22635C9.35892 4.79538 9.22864 4.35443 9.12773 3.90635C9.07773 3.68635 9.03773 3.45635 9.00773 3.23635C8.8863 2.53197 8.51736 1.89409 7.96735 1.43759C7.41735 0.981089 6.72243 0.735961 6.00773 0.746352H2.99773C2.57498 0.745799 2.15688 0.834601 1.77085 1.00694C1.38482 1.17927 1.03957 1.43125 0.757731 1.74635C0.47005 2.07001 0.255846 2.4521 0.129834 2.86639C0.00382186 3.28067 -0.0310103 3.71733 0.0277305 4.14635C0.571318 8.30849 2.47294 12.175 5.43773 15.1464C8.40908 18.1111 12.2756 20.0128 16.4377 20.5564C16.5675 20.5663 16.6979 20.5663 16.8277 20.5564C17.5651 20.5574 18.2771 20.2869 18.8277 19.7964C19.1428 19.5145 19.3948 19.1693 19.5671 18.7832C19.7395 18.3972 19.8283 17.9791 19.8277 17.5564V14.5564C19.8223 13.8654 19.5786 13.1975 19.1377 12.6654C18.6967 12.1334 18.0857 11.7699 17.4077 11.6364ZM17.8977 17.6364C17.8974 17.7759 17.8679 17.9138 17.811 18.0413C17.7542 18.1687 17.6713 18.2829 17.5677 18.3764C17.4581 18.4762 17.3277 18.5504 17.1859 18.5937C17.0441 18.6369 16.8944 18.6481 16.7477 18.6264C13.016 18.139 9.54798 16.4383 6.87773 13.7864C4.2052 11.1138 2.48976 7.63372 1.99773 3.88635C1.97601 3.73969 1.98717 3.59003 2.03041 3.4482C2.07364 3.30638 2.14788 3.17595 2.24773 3.06635C2.34235 2.9615 2.45811 2.87789 2.58738 2.82101C2.71665 2.76413 2.8565 2.73528 2.99773 2.73635H5.99773C6.22889 2.7307 6.45487 2.80534 6.6372 2.94755C6.81952 3.08977 6.94693 3.29077 6.99773 3.51635C6.99773 3.78635 7.08773 4.06635 7.14773 4.33635C7.26331 4.86022 7.41705 5.37492 7.60773 5.87635L6.20773 6.53635C5.96709 6.64682 5.78009 6.8482 5.68773 7.09635C5.58771 7.33981 5.58771 7.61289 5.68773 7.85635C7.12693 10.9391 9.60497 13.4172 12.6877 14.8564C12.9312 14.9564 13.2043 14.9564 13.4477 14.8564C13.6959 14.764 13.8973 14.577 14.0077 14.3364L14.6377 12.9364C15.1536 13.1245 15.6815 13.2781 16.2177 13.3964C16.4777 13.4564 16.7577 13.5064 17.0277 13.5464C17.2533 13.5972 17.4543 13.7246 17.5965 13.9069C17.7387 14.0892 17.8134 14.3152 17.8077 14.5464L17.8977 17.6364ZM11.9977 0.636353C11.7677 0.636353 11.5277 0.636353 11.2977 0.636353C11.0325 0.658896 10.7871 0.785873 10.6155 0.98935C10.4439 1.19283 10.3602 1.45614 10.3827 1.72135C10.4053 1.98657 10.5323 2.23197 10.7357 2.40356C10.9392 2.57516 11.2025 2.6589 11.4677 2.63635H11.9977C13.589 2.63635 15.1152 3.26849 16.2404 4.39371C17.3656 5.51893 17.9977 7.04505 17.9977 8.63635C17.9977 8.81635 17.9977 8.98635 17.9977 9.16635C17.9756 9.43016 18.0589 9.692 18.2295 9.89445C18.4001 10.0969 18.644 10.2235 18.9077 10.2464H18.9877C19.2381 10.2474 19.4797 10.1545 19.6648 9.98597C19.85 9.81748 19.9652 9.58567 19.9877 9.33635C19.9877 9.10635 19.9877 8.86635 19.9877 8.63635C19.9877 6.51635 19.1462 4.48303 17.6481 2.98303C16.15 1.48303 14.1177 0.639003 11.9977 0.636353ZM13.9977 8.63635C13.9977 8.90157 14.1031 9.15592 14.2906 9.34346C14.4782 9.531 14.7325 9.63635 14.9977 9.63635C15.2629 9.63635 15.5173 9.531 15.7048 9.34346C15.8924 9.15592 15.9977 8.90157 15.9977 8.63635C15.9977 7.57549 15.5763 6.55807 14.8262 5.80793C14.076 5.05778 13.0586 4.63635 11.9977 4.63635C11.7325 4.63635 11.4782 4.74171 11.2906 4.92925C11.1031 5.11678 10.9977 5.37114 10.9977 5.63635C10.9977 5.90157 11.1031 6.15592 11.2906 6.34346C11.4782 6.531 11.7325 6.63635 11.9977 6.63635C12.5282 6.63635 13.0369 6.84707 13.4119 7.22214C13.787 7.59721 13.9977 8.10592 13.9977 8.63635Z" fill="white"/>
</svg>
