<svg width="16" height="9" viewBox="0 0 16 9" fill="none" xmlns="http://www.w3.org/2000/svg">
  <path d="M9.77096 0.410799C9.70481 0.337442 9.62611 0.279217 9.53941 0.239482C9.4527 0.199748 9.35969 0.179291 9.26576 0.179291C9.17183 0.179291 9.07882 0.199748 8.99212 0.239482C8.90541 0.279217 8.82671 0.337442 8.76056 0.410799L3.45952 6.24942L1.23238 3.79188C1.1637 3.7189 1.08262 3.66152 0.993782 3.62301C0.904942 3.5845 0.810075 3.56562 0.714599 3.56743C0.619123 3.56925 0.524908 3.59173 0.437331 3.6336C0.349755 3.67547 0.270533 3.7359 0.20419 3.81144C0.137846 3.88699 0.0856795 3.97616 0.0506685 4.07388C0.0156575 4.1716 -0.00151251 4.27595 0.000139326 4.38096C0.00179116 4.48598 0.0222324 4.58961 0.0602956 4.68594C0.0983588 4.78227 0.153299 4.86941 0.221978 4.94238L2.95433 7.94778C3.02047 8.02114 3.09917 8.07937 3.18588 8.1191C3.27259 8.15883 3.36559 8.17929 3.45952 8.17929C3.55346 8.17929 3.64646 8.15883 3.73317 8.1191C3.81988 8.07937 3.89858 8.02114 3.96472 7.94778L9.77096 1.5613C9.84319 1.48802 9.90083 1.39906 9.94025 1.30006C9.97968 1.20105 10 1.09414 10 0.986052C10 0.877966 9.97968 0.771051 9.94025 0.672045C9.90083 0.573039 9.84319 0.484089 9.77096 0.410799Z" fill="#41D37E"/>
  <path d="M15.771 0.410799C15.7048 0.337442 15.6261 0.279217 15.5394 0.239482C15.4527 0.199748 15.3597 0.179291 15.2658 0.179291C15.1718 0.179291 15.0788 0.199748 14.9921 0.239482C14.9054 0.279217 14.8267 0.337442 14.7606 0.410799L9.45952 6.24942L7.23238 3.79188C7.1637 3.7189 7.08262 3.66152 6.99378 3.62301C6.90494 3.5845 6.81008 3.56562 6.7146 3.56743C6.61912 3.56925 6.52491 3.59173 6.43733 3.6336C6.34976 3.67547 6.27053 3.7359 6.20419 3.81144C6.13785 3.88699 6.08568 3.97616 6.05067 4.07388C6.01566 4.1716 5.99849 4.27595 6.00014 4.38096C6.00179 4.48598 6.02223 4.58961 6.0603 4.68594C6.09836 4.78227 6.1533 4.86941 6.22198 4.94238L8.95433 7.94778C9.02047 8.02114 9.09917 8.07937 9.18588 8.1191C9.27259 8.15883 9.36559 8.17929 9.45952 8.17929C9.55346 8.17929 9.64646 8.15883 9.73317 8.1191C9.81988 8.07937 9.89858 8.02114 9.96472 7.94778L15.771 1.5613C15.8432 1.48802 15.9008 1.39906 15.9403 1.30006C15.9797 1.20105 16 1.09414 16 0.986052C16 0.877966 15.9797 0.771051 15.9403 0.672045C15.9008 0.573039 15.8432 0.484089 15.771 0.410799Z" fill="#41D37E"/>
</svg>
