<svg width="13" height="14" viewBox="0 0 13 14" fill="currentColor" xmlns="http://www.w3.org/2000/svg">
<path fill-rule="evenodd" clip-rule="evenodd" d="M0.242418 2.77271C0.429763 1.68508 1.29427 0.885566 2.38537 0.719549C3.43081 0.560478 4.865 0.403641 6.45602 0.403641C8.04705 0.403641 9.48123 0.560479 10.5267 0.719549C11.6178 0.885566 12.4823 1.68508 12.6696 2.77271C12.8002 3.53074 12.912 4.49368 12.912 5.56844C12.912 6.6432 12.8002 7.60614 12.6696 8.36416C12.4823 9.4518 11.6178 10.2513 10.5267 10.4173C9.57026 10.5629 8.28849 10.7065 6.85893 10.7299L2.91086 13.0629C2.48049 13.3172 1.93682 13.0069 1.93682 12.5071V10.3097C1.06304 10.0191 0.403238 9.29781 0.242419 8.36417C0.111848 7.60614 2.28882e-05 6.6432 2.28882e-05 5.56844C2.28882e-05 4.49368 0.111848 3.53074 0.242418 2.77271ZM2.58242 4.27724C2.58242 3.92068 2.87147 3.63164 3.22802 3.63164H9.68402C10.0406 3.63164 10.3296 3.92068 10.3296 4.27724C10.3296 4.63379 10.0406 4.92284 9.68402 4.92284H3.22802C2.87147 4.92284 2.58242 4.63379 2.58242 4.27724ZM2.58242 6.85964C2.58242 6.50308 2.87147 6.21404 3.22802 6.21404H5.81042C6.16698 6.21404 6.45602 6.50308 6.45602 6.85964C6.45602 7.21619 6.16698 7.50524 5.81042 7.50524H3.22802C2.87147 7.50524 2.58242 7.21619 2.58242 6.85964Z" fill="currentColor"/>
</svg>
