<svg version="1.1" width="512" height="512" x="0" y="0" viewBox="0 0 24 24" xml:space="preserve"><g><path d="M21.5 5h-10c-.6 0-1-.4-1-1s.4-1 1-1h10c.6 0 1 .4 1 1s-.4 1-1 1zM2.5 8.5c-.3 0-.5-.1-.7-.3-.4-.4-.4-1 0-1.4l4-4c.4-.4 1-.4 1.4 0s.4 1 0 1.4l-4 4c-.2.2-.4.3-.7.3z" fill="currentColor" data-original="currentColor"></path><path d="M6.5 21.5c-.6 0-1-.4-1-1v-17c0-.6.4-1 1-1s1 .4 1 1v17c0 .6-.4 1-1 1zM19.5 10h-8c-.6 0-1-.4-1-1s.4-1 1-1h8c.6 0 1 .4 1 1s-.4 1-1 1zM17.5 15h-6c-.6 0-1-.4-1-1s.4-1 1-1h6c.6 0 1 .4 1 1s-.4 1-1 1zM15.5 20h-4c-.6 0-1-.4-1-1s.4-1 1-1h4c.6 0 1 .4 1 1s-.4 1-1 1z" fill="currentColor" data-original="currentColor"></path></g></svg>