<svg width="15" height="19" viewBox="0 0 15 19" fill="none" xmlns="http://www.w3.org/2000/svg">
  <path d="M7.69701 18.1378C7.29798 18.1392 6.91509 17.9458 6.63386 17.6006L0.741436 10.4185C0.430515 10.0407 0.271119 9.5157 0.305349 8.98213L0.681286 2.9633C0.734983 2.05734 1.32746 1.33774 2.07075 1.27571L7.00754 0.817379C7.04664 0.807294 7.08499 0.807294 7.12408 0.807294C7.52232 0.806713 7.90424 1.0001 8.18497 1.34446L14.0774 8.52563C14.3595 8.86947 14.5181 9.33589 14.5181 9.82225C14.5181 10.3086 14.3595 10.775 14.0774 11.1189L8.76016 17.6006C8.47883 17.9456 8.09601 18.139 7.69701 18.1378ZM4.50681 4.09996C3.82624 4.1002 3.23063 4.6577 3.05464 5.45922C2.87866 6.26075 3.16616 7.10646 3.75563 7.52119C4.34509 7.93592 5.08954 7.81627 5.57071 7.22946L5.57598 7.22396L5.58124 7.21755L5.57522 7.22396C6.00262 6.69831 6.12883 5.91089 5.89519 5.22774C5.66156 4.5446 5.1139 4.09974 4.50681 4.09996Z" fill="#C4CAD3"/>
</svg>
