<svg width="4" height="19" viewBox="0 0 4 19" fill="currentColor" xmlns="http://www.w3.org/2000/svg">
  <path d="M2 4.63635C2.39556 4.63635 2.78224 4.51906 3.11114 4.29929C3.44004 4.07953 3.69639 3.76717 3.84776 3.40172C3.99914 3.03627 4.03874 2.63413 3.96157 2.24617C3.8844 1.85821 3.69392 1.50184 3.41421 1.22214C3.13451 0.942435 2.77814 0.751953 2.39018 0.674783C2.00222 0.597612 1.60009 0.637219 1.23463 0.788594C0.869182 0.93997 0.556825 1.19631 0.337062 1.52521C0.117299 1.85411 1.07779e-06 2.24079 1.07779e-06 2.63635C1.07779e-06 3.16679 0.210715 3.67549 0.585788 4.05057C0.960861 4.42564 1.46957 4.63635 2 4.63635ZM2 14.6364C1.60444 14.6364 1.21776 14.7537 0.888861 14.9734C0.559963 15.1932 0.303617 15.5055 0.152242 15.871C0.000866562 16.2364 -0.0387401 16.6386 0.0384303 17.0265C0.115601 17.4145 0.306083 17.7709 0.585788 18.0506C0.865493 18.3303 1.22186 18.5208 1.60982 18.5979C1.99778 18.6751 2.39992 18.6355 2.76537 18.4841C3.13082 18.3327 3.44318 18.0764 3.66294 17.7475C3.8827 17.4186 4 17.0319 4 16.6364C4 16.1059 3.78929 15.5972 3.41421 15.2221C3.03914 14.8471 2.53043 14.6364 2 14.6364ZM2 7.63635C1.60444 7.63635 1.21776 7.75365 0.888861 7.97341C0.559963 8.19318 0.303617 8.50553 0.152242 8.87099C0.000866562 9.23644 -0.0387401 9.63857 0.0384303 10.0265C0.115601 10.4145 0.306083 10.7709 0.585788 11.0506C0.865493 11.3303 1.22186 11.5208 1.60982 11.5979C1.99778 11.6751 2.39992 11.6355 2.76537 11.4841C3.13082 11.3327 3.44318 11.0764 3.66294 10.7475C3.8827 10.4186 4 10.0319 4 9.63635C4 9.10592 3.78929 8.59721 3.41421 8.22214C3.03914 7.84707 2.53043 7.63635 2 7.63635Z"/>
</svg>
