<svg fill="currentColor" width="18" height="4" viewBox="0 0 18 4" xmlns="http://www.w3.org/2000/svg">
  <path d="M8.99994 0C8.60438 0 8.2177 0.117298 7.8888 0.337061C7.5599 0.556824 7.30356 0.869181 7.15218 1.23463C7.00081 1.60009 6.9612 2.00222 7.03837 2.39018C7.11554 2.77814 7.30602 3.13451 7.58573 3.41421C7.86543 3.69392 8.2218 3.8844 8.60976 3.96157C8.99772 4.03874 9.39985 3.99913 9.76531 3.84776C10.1308 3.69638 10.4431 3.44004 10.6629 3.11114C10.8826 2.78224 10.9999 2.39556 10.9999 2C10.9999 1.46957 10.7892 0.96086 10.4142 0.585787C10.0391 0.210714 9.53037 0 8.99994 0ZM1.99994 0C1.60438 0 1.2177 0.117298 0.888799 0.337061C0.559901 0.556824 0.303556 0.869181 0.152181 1.23463C0.000805527 1.60009 -0.0388011 2.00222 0.0383693 2.39018C0.11554 2.77814 0.306021 3.13451 0.585726 3.41421C0.865431 3.69392 1.2218 3.8844 1.60976 3.96157C1.99772 4.03874 2.39985 3.99913 2.76531 3.84776C3.13076 3.69638 3.44312 3.44004 3.66288 3.11114C3.88264 2.78224 3.99994 2.39556 3.99994 2C3.99994 1.46957 3.78923 0.96086 3.41415 0.585787C3.03908 0.210714 2.53037 0 1.99994 0ZM15.9999 0C15.6044 0 15.2177 0.117298 14.8888 0.337061C14.5599 0.556824 14.3036 0.869181 14.1522 1.23463C14.0008 1.60009 13.9612 2.00222 14.0384 2.39018C14.1155 2.77814 14.306 3.13451 14.5857 3.41421C14.8654 3.69392 15.2218 3.8844 15.6098 3.96157C15.9977 4.03874 16.3999 3.99913 16.7653 3.84776C17.1308 3.69638 17.4431 3.44004 17.6629 3.11114C17.8826 2.78224 17.9999 2.39556 17.9999 2C17.9999 1.46957 17.7892 0.96086 17.4142 0.585787C17.0391 0.210714 16.5304 0 15.9999 0Z"/>
</svg>
