<svg width="20" height="20" viewBox="0 0 20 20" fill="none" xmlns="http://www.w3.org/2000/svg">
  <path fill-rule="evenodd" clip-rule="evenodd" d="M7.99293 12.6723C11.0671 12.6723 13.6946 13.1382 13.6946 14.999C13.6946 16.8598 11.0846 17.339 7.99293 17.339C4.91793 17.339 2.29126 16.8773 2.29126 15.0157C2.29126 13.154 4.90043 12.6723 7.99293 12.6723Z" stroke="currentColor" stroke-width="2" stroke-linecap="round" stroke-linejoin="round"/>
  <path fill-rule="evenodd" clip-rule="evenodd" d="M7.99289 10.0165C5.97456 10.0165 4.33789 8.38067 4.33789 6.36234C4.33789 4.344 5.97456 2.70817 7.99289 2.70817C10.0104 2.70817 11.6471 4.344 11.6471 6.36234C11.6546 8.37317 10.0296 10.009 8.01872 10.0165H7.99289Z" stroke="currentColor" stroke-width="2" stroke-linecap="round" stroke-linejoin="round"/>
  <path d="M13.7358 9.068C15.07 8.8805 16.0975 7.7355 16.1 6.34967C16.1 4.98384 15.1042 3.8505 13.7983 3.63634" stroke="currentColor" stroke-width="2" stroke-linecap="round" stroke-linejoin="round"/>
  <path d="M15.4961 12.2768C16.7886 12.4693 17.6911 12.9227 17.6911 13.856C17.6911 14.4985 17.2661 14.9152 16.5794 15.176" stroke="currentColor" stroke-width="2" stroke-linecap="round" stroke-linejoin="round"/>
</svg>
